<svg xmlns="http://www.w3.org/2000/svg" viewBox="0 0 64.33 16.06"><defs><style>.cls-1{fill:#f04b23;}</style></defs><g id="Layer_2" data-name="Layer 2"><g id="Layer_1-2" data-name="Layer 1"><path class="cls-1" d="M10.22,4.14H0V2H3.87V0H6.39V2h3.83Zm-.5,5.78a4.62,4.62,0,0,1-.32,1.72A3.84,3.84,0,0,1,8.47,13,4.2,4.2,0,0,1,7,13.84a5.35,5.35,0,0,1-1.89.31,5.35,5.35,0,0,1-1.89-.31A4.2,4.2,0,0,1,1.79,13a3.84,3.84,0,0,1-.93-1.34A4.62,4.62,0,0,1,.54,9.92V9.05A4.62,4.62,0,0,1,.86,7.33,3.94,3.94,0,0,1,1.79,6a4.2,4.2,0,0,1,1.45-.86,5.59,5.59,0,0,1,1.89-.31A5.59,5.59,0,0,1,7,5.13,4.2,4.2,0,0,1,8.47,6,3.94,3.94,0,0,1,9.4,7.33a4.62,4.62,0,0,1,.32,1.72Zm-2.48-.7a2.54,2.54,0,0,0-.53-1.7,2,2,0,0,0-1.58-.61,2,2,0,0,0-1.58.61A2.54,2.54,0,0,0,3,9.22v.54a2.52,2.52,0,0,0,.53,1.69,1.94,1.94,0,0,0,1.58.61,1.94,1.94,0,0,0,1.58-.61,2.52,2.52,0,0,0,.53-1.69Zm6.51,6.84H11.27V.16h2.48V6.7h2.16V9.07H13.75Z"/><path class="cls-1" d="M26.66,9.74a4.39,4.39,0,0,1-.33,1.72,3.89,3.89,0,0,1-.95,1.34,4.24,4.24,0,0,1-1.48.86A5.52,5.52,0,0,1,22,14a5.62,5.62,0,0,1-1.93-.31,4.2,4.2,0,0,1-1.47-.86,3.77,3.77,0,0,1-.95-1.34,4.39,4.39,0,0,1-.33-1.72V4.63a4.36,4.36,0,0,1,.33-1.72,3.68,3.68,0,0,1,.95-1.34A4.22,4.22,0,0,1,20.05.7,5.88,5.88,0,0,1,22,.4,5.77,5.77,0,0,1,23.9.7a4.26,4.26,0,0,1,1.48.87,3.8,3.8,0,0,1,.95,1.34,4.36,4.36,0,0,1,.33,1.72Zm-6.88-.27a2.43,2.43,0,0,0,.56,1.69,2.1,2.1,0,0,0,1.64.61,2.11,2.11,0,0,0,1.64-.61,2.42,2.42,0,0,0,.55-1.69V4.9a2.45,2.45,0,0,0-.55-1.7A2.15,2.15,0,0,0,22,2.59a2.13,2.13,0,0,0-1.64.61,2.45,2.45,0,0,0-.56,1.7Zm11.43,6.59H28.73V.16h2.48Z"/><path class="cls-1" d="M42.66,13.75,41,11.65c-.53-.65-1-1.28-1.49-1.89-.12-.16-.23-.31-.33-.46a5.5,5.5,0,0,1-.28-.48,6.06,6.06,0,0,1-.61.94c-.47.61-1,1.29-1.66,2S35.32,13.27,34.7,14L33,12.22c.71-.84,1.4-1.68,2.06-2.51s1.27-1.63,1.81-2.4a3.85,3.85,0,0,0,.52-1.08,4.6,4.6,0,0,0,.18-1.33V3H34V.85h9.66V3H40.1V4.9a4.6,4.6,0,0,0,.18,1.33,4.12,4.12,0,0,0,.51,1.08c.51.78,1.06,1.56,1.63,2.34s1.19,1.58,1.88,2.41Zm5.11,2.31H45.29V.16h2.48Z"/><path class="cls-1" d="M60.48,13.27H50.53V.67H53v10.4h7.47Zm3.85,2.79H61.85V.16h2.48Z"/></g></g></svg>